<svg viewBox="0 0 25 25" xmlns="http://www.w3.org/2000/svg" xml:space="preserve" style="fill-rule:evenodd;clip-rule:evenodd;stroke-linejoin:round;stroke-miterlimit:2"><path d="M20.235 10.987c0-.755-.218-1.471-.654-2.15-.437-.679-1.07-1.018-1.902-1.018-.332 0-.675.063-1.028.189-.353.125-.717.364-1.091.716-.249-.452-.374-1.182-.374-2.187 0-1.609.374-2.803 1.122-3.583.748-.779 1.849-1.345 3.304-1.697V.503c-.998 0-1.964.189-2.899.566a6.778 6.778 0 0 0-2.431 1.659A8.498 8.498 0 0 0 12.63 5.33c-.415 1.006-.623 2.137-.623 3.394 0 1.659.416 3.092 1.247 4.299.831 1.207 1.953 1.81 3.366 1.81.956 0 1.797-.327 2.524-.98.728-.654 1.091-1.609 1.091-2.866Zm-8.851 0c0-.755-.218-1.471-.655-2.15-.436-.679-1.07-1.018-1.901-1.018-.332 0-.675.063-1.028.189-.354.125-.717.364-1.091.716-.25-.553-.374-1.282-.374-2.187 0-1.609.374-2.803 1.122-3.583.748-.779 1.849-1.345 3.303-1.697V.503c-.997 0-1.963.189-2.898.566a6.778 6.778 0 0 0-2.431 1.659 7.622 7.622 0 0 0-1.59 2.602c-.374 1.006-.561 2.137-.561 3.394 0 1.659.395 3.092 1.185 4.299.789 1.207 1.891 1.81 3.303 1.81.956 0 1.798-.327 2.525-.98.727-.654 1.091-1.609 1.091-2.866Z" style="fill:#e4e9eb;fill-rule:nonzero" transform="matrix(1.46126 0 0 1.20769 -4.681 3.24)"/></svg>