<svg width="500" height="500" viewBox="0 0 500 500" xmlns="http://www.w3.org/2000/svg" fill-rule="evenodd" clip-rule="evenodd" stroke-linejoin="round" stroke-miterlimit="2"><g fill-rule="nonzero"><path d="M2.917 250V46.52c0-23.924 19.68-43.603 43.603-43.603h406.96c23.924 0 43.603 19.68 43.603 43.603v406.96c0 23.924-19.68 43.603-43.603 43.603H46.52c-23.924 0-43.603-19.68-43.603-43.603" fill="#007acc"/><path d="M111.343 250.872v20.203h64.241v182.841h45.347V270.784h64.242v-19.767c0-11.046 0-20.057-.436-20.348 0-.29-39.243-.436-86.77-.436l-86.479.291v20.348l-.436-.145.29.145zm288.651-20.639c12.645 2.907 22.237 8.72 30.813 17.587 4.65 4.942 11.482 13.662 11.918 15.988 0 .581-21.366 15.115-34.301 23.254-.582.291-2.471-1.889-4.36-5.087-6.54-9.156-13.081-13.08-23.255-13.807-14.97-1.018-24.709 6.831-24.709 19.767 0 3.924.582 6.104 2.18 9.447 3.343 6.686 9.448 10.755 28.633 19.185 35.318 15.261 50.58 25.29 59.881 39.533 10.465 15.988 12.79 41.278 5.814 60.172-7.848 20.64-27.179 34.592-54.794 39.243-8.72 1.453-28.342 1.163-37.644-.436a93.256 93.256 0 01-50.289-26.307 88.44 88.44 0 01-12.79-19.04l4.651-2.907 18.604-10.755 13.953-8.14 3.197 4.36c4.07 6.396 13.081 14.971 18.459 17.878 15.988 8.285 37.644 7.267 48.254-2.47 4.506-4.07 6.54-8.721 6.54-14.826 0-5.668-.872-8.139-3.779-12.5-3.924-5.522-11.772-9.883-34.01-19.766-25.58-10.9-36.48-17.877-46.51-28.487a70.174 70.174 0 01-13.662-24.709 94.675 94.675 0 01-.727-31.684c5.305-24.665 25.595-43.487 50.58-46.946 8.72-1.744 29.068-1.017 37.644 1.163l-.291.29z" fill="#fff"/></g></svg>